Coordinates
version=1
nRows=16
nColumns=42
inDegrees=yes

Units are S.I. units (second, meters, Newtons, ...)
If the header above contains a line with 'inDegrees', this indicates whether rotational values are in degrees (yes) or radians (no).

endheader
time	pelvis_tilt	pelvis_list	pelvis_rotation	pelvis_tx	pelvis_ty	pelvis_tz	hip_flexion_r	hip_adduction_r	hip_rotation_r	knee_angle_r	knee_adduction_r	knee_angle_r_beta	ankle_angle_r	subtalar_angle_r	mtp_angle_r	hip_flexion_l	hip_adduction_l	hip_rotation_l	knee_angle_l	knee_adduction_l	knee_angle_l_beta	ankle_angle_l	subtalar_angle_l	mtp_angle_l	lumbar_extension	lumbar_bending	lumbar_rotation	arm_flex_r	arm_add_r	arm_rot_r	elbow_flex_r	pro_sup_r	wrist_flex_r	wrist_dev_r	arm_flex_l	arm_add_l	arm_rot_l	elbow_flex_l	pro_sup_l	wrist_flex_l	wrist_dev_l
     12.90500000	    -11.35186640	     -2.01316079	      4.54231544	      0.77191601	      0.96258883	      0.49444734	     19.03513993	      2.13988617	    -12.94236992	     17.65420077	      0.00000000	      0.30812393	      7.22476792	      3.45330030	      0.29197919	     34.17073264	     -3.44234115	     -2.39018378	     67.41913839	      0.00000000	      1.17668594	      1.15068846	    -15.63482215	      0.29197919	      0.00000000	      0.00000000	      0.00000000	      0.00000000	     -7.30964186	      0.00000000	     74.67570745	     90.00000001	      0.00000000	      0.00000000	      0.00000000	     -7.30964186	      0.00000000	     74.67570745	     90.00000001	      0.00000000	      0.00000000
     12.91000000	    -11.16104377	     -1.78859170	      4.47742072	      0.77150382	      0.96369155	      0.49460484	     18.26322559	      2.00466624	    -12.87395224	     17.29085731	      0.00000000	      0.30178239	      7.30583889	      3.83386376	      0.28642251	     34.29534246	     -3.25271773	     -2.68711165	     66.52078185	      0.00000000	      1.16100666	      1.43187340	    -15.50483339	      0.28642251	      0.00000000	      0.00000000	      0.00000000	      0.00000000	     -7.32187234	      0.00000000	     74.67671106	     90.00000001	      0.00000000	      0.00000000	      0.00000000	     -7.32187234	      0.00000000	     74.67671106	     90.00000001	      0.00000000	      0.00000000
     12.91500000	    -11.17396375	     -1.84508171	      4.44380945	      0.77078664	      0.96414532	      0.49478289	     17.85548995	      2.13853884	    -13.03785186	     17.15928472	      0.00000000	      0.29948602	      7.51511552	      3.82132098	      0.28504369	     34.79514008	     -3.33373831	     -2.84465308	     65.78487794	      0.00000000	      1.14816272	      1.72398245	    -15.51029788	      0.28504369	      0.00000000	      0.00000000	      0.00000000	      0.00000000	     -7.32502301	      0.00000000	     74.67696811	     90.00000001	      0.00000000	      0.00000000	      0.00000000	     -7.32502301	      0.00000000	     74.67696811	     90.00000001	      0.00000000	      0.00000000
     12.92000000	    -11.25552215	     -1.54329966	      4.43870312	      0.77050604	      0.96499090	      0.49483308	     17.29893946	      1.88749561	    -12.94022308	     16.64877296	      0.00000000	      0.29057590	      7.51998923	      4.22407920	      0.28157496	     35.11394821	     -3.00456599	     -3.15355550	     64.64888146	      0.00000000	      1.12833584	      2.03057990	    -15.32058226	      0.28157496	      0.00000000	      0.00000000	      0.00000000	      0.00000000	     -7.33283203	      0.00000000	     74.67760737	     90.00000001	      0.00000000	      0.00000000	      0.00000000	     -7.33283203	      0.00000000	     74.67760737	     90.00000001	      0.00000000	      0.00000000
     12.92500000	    -11.23515058	     -1.65022443	      4.38579785	      0.76967528	      0.96538456	      0.49488034	     16.89722022	      2.06272769	    -13.03715363	     16.58899768	      0.00000000	      0.28953263	      7.68824528	      4.27428710	      0.28032999	     35.55095206	     -3.13951673	     -3.28902098	     63.78282309	      0.00000000	      1.11322027	      2.21906429	    -15.25233282	      0.28032999	      0.00000000	      0.00000000	      0.00000000	      0.00000000	     -7.33572406	      0.00000000	     74.67784298	     90.00000001	      0.00000000	      0.00000000	      0.00000000	     -7.33572406	      0.00000000	     74.67784298	     90.00000001	      0.00000000	      0.00000000
     12.93000000	    -11.18907816	     -1.24683892	      4.27173040	      0.76940607	      0.96642764	      0.49522524	     16.21202158	      1.75004739	    -12.81346333	     16.11744301	      0.00000000	      0.28130245	      7.69075545	      4.80863740	      0.27592748	     35.59766430	     -2.79135861	     -3.73851822	     62.38641935	      0.00000000	      1.08884843	      2.38136852	    -14.99774870	      0.27592748	      0.00000000	      0.00000000	      0.00000000	      0.00000000	     -7.34578111	      0.00000000	     74.67866548	     90.00000001	      0.00000000	      0.00000000	      0.00000000	     -7.34578111	      0.00000000	     74.67866548	     90.00000001	      0.00000000	      0.00000000
     12.93500000	    -10.95664580	     -0.92751640	      4.13395203	      0.76883351	      0.96745498	      0.49539492	     15.48341644	      1.50666941	    -12.72091059	     15.90509741	      0.00000000	      0.27759632	      7.86647133	      5.14528144	      0.26803573	     35.50158307	     -2.53269548	     -4.10274736	     61.01480477	      0.00000000	      1.06490924	      2.37370367	    -14.98393536	      0.26803573	      0.00000000	      0.00000000	      0.00000000	      0.00000000	     -7.36412290	      0.00000000	     74.68016395	     90.00000001	      0.00000000	      0.00000000	      0.00000000	     -7.36412290	      0.00000000	     74.68016395	     90.00000001	      0.00000000	      0.00000000
     12.94000000	    -11.05901554	     -0.77355630	      4.10551097	      0.76853608	      0.96789415	      0.49533871	     15.04527695	      1.39279601	    -12.70572350	     15.56994860	      0.00000000	      0.27174687	      7.92772970	      5.42531322	      0.26382879	     35.81540060	     -2.36560558	     -4.35322137	     59.71848625	      0.00000000	      1.04228421	      2.50231214	    -14.70581367	      0.26382879	      0.00000000	      0.00000000	      0.00000000	      0.00000000	     -7.37413444	      0.00000000	     74.68097998	     90.00000001	      0.00000000	      0.00000000	      0.00000000	     -7.37413444	      0.00000000	     74.68097998	     90.00000001	      0.00000000	      0.00000000
     12.94500000	    -11.05213322	     -0.65028493	      4.04141511	      0.76806916	      0.96842801	      0.49544650	     14.55138294	      1.32753810	    -12.71085194	     15.34518017	      0.00000000	      0.26782392	      8.03325095	      5.66987533	      0.25943401	     35.98210831	     -2.25975969	     -4.56525686	     58.32490756	      0.00000000	      1.01796167	      2.57586833	    -14.40070519	      0.25943401	      0.00000000	      0.00000000	      0.00000000	      0.00000000	     -7.38477042	      0.00000000	     74.68184550	     90.00000001	      0.00000000	      0.00000000	      0.00000000	     -7.38477042	      0.00000000	     74.68184550	     90.00000001	      0.00000000	      0.00000000
     12.95000000	    -10.96387771	     -0.44563026	      3.87467413	      0.76751348	      0.96904082	      0.49551161	     13.99319780	      1.18615998	    -12.60596245	     15.12880763	      0.00000000	      0.26404751	      8.18030937	      6.00407296	      0.25368206	     35.99387291	     -2.11829007	     -4.90671746	     56.82219695	      0.00000000	      0.99173443	      2.59591819	    -14.09985224	      0.25368206	      0.00000000	      0.00000000	      0.00000000	      0.00000000	     -7.39888721	      0.00000000	     74.68299342	     90.00000001	      0.00000000	      0.00000000	      0.00000000	     -7.39888721	      0.00000000	     74.68299342	     90.00000001	      0.00000000	      0.00000000
     12.95500000	    -10.97777316	     -0.31480535	      3.79432959	      0.76697654	      0.96943841	      0.49549767	     13.55571397	      1.10041757	    -12.63350998	     14.98410466	      0.00000000	      0.26152196	      8.29476725	      6.14583487	      0.24943546	     36.13178994	     -2.00435026	     -5.15310651	     55.30052725	      0.00000000	      0.96517628	      2.60552715	    -13.70023287	      0.24943546	      0.00000000	      0.00000000	      0.00000000	      0.00000000	     -7.40952533	      0.00000000	     74.68385674	     90.00000001	      0.00000000	      0.00000000	      0.00000000	     -7.40952533	      0.00000000	     74.68385674	     90.00000001	      0.00000000	      0.00000000
     12.96000000	    -10.86948294	     -0.09571762	      3.62359886	      0.76648075	      0.96999862	      0.49555103	     12.98605614	      0.92968075	    -12.53580338	     14.80305351	      0.00000000	      0.25836202	      8.48893978	      6.43562074	      0.24320019	     36.04216305	     -1.85418988	     -5.52383942	     53.62118573	      0.00000000	      0.93586624	      2.53072180	    -13.42853455	      0.24320019	      0.00000000	      0.00000000	      0.00000000	      0.00000000	     -7.42539704	      0.00000000	     74.68514349	     90.00000001	      0.00000000	      0.00000000	      0.00000000	     -7.42539704	      0.00000000	     74.68514349	     90.00000001	      0.00000000	      0.00000000
     12.96500000	    -10.86771725	      0.03699532	      3.49359055	      0.76592558	      0.97037003	      0.49558033	     12.52208907	      0.85325233	    -12.44058257	     14.60171007	      0.00000000	      0.25484792	      8.58953695	      6.83138715	      0.23764808	     36.07593987	     -1.75322889	     -5.77930909	     51.91605238	      0.00000000	      0.90610605	      2.41528209	    -13.04095071	      0.23764808	      0.00000000	      0.00000000	      0.00000000	      0.00000000	     -7.43984056	      0.00000000	     74.68631231	     90.00000001	      0.00000000	      0.00000000	      0.00000000	     -7.43984056	      0.00000000	     74.68631231	     90.00000001	      0.00000000	      0.00000000
     12.97000000	    -10.86952899	      0.15508341	      3.37469937	      0.76534101	      0.97060862	      0.49552423	     12.08394947	      0.77250106	    -12.39691012	     14.43421751	      0.00000000	      0.25192462	      8.67845182	      7.03118951	      0.23320465	     36.11552831	     -1.66169682	     -6.04732862	     50.20601955	      0.00000000	      0.87626035	      2.29049507	    -12.62722935	      0.23320465	      0.00000000	      0.00000000	      0.00000000	      0.00000000	     -7.45163803	      0.00000000	     74.68726519	     90.00000001	      0.00000000	      0.00000000	      0.00000000	     -7.45163803	      0.00000000	     74.68726519	     90.00000001	      0.00000000	      0.00000000
     12.97500000	    -10.70369809	      0.35103315	      3.16381634	      0.76480022	      0.97110100	      0.49561043	     11.49012941	      0.62649256	    -12.29399445	     14.31773767	      0.00000000	      0.24989166	      8.86261188	      7.33233691	      0.22466240	     35.88350397	     -1.56411000	     -6.46046669	     48.33110454	      0.00000000	      0.84353691	      1.98039858	    -12.39907779	      0.22466240	      0.00000000	      0.00000000	      0.00000000	      0.00000000	     -7.47479508	      0.00000000	     74.68913306	     90.00000001	      0.00000000	      0.00000000	      0.00000000	     -7.47479508	      0.00000000	     74.68913306	     90.00000001	      0.00000000	      0.00000000
     12.98000000	    -10.62737386	      0.50945265	      3.06680938	      0.76434409	      0.97136637	      0.49538505	     10.99671830	      0.47573121	    -12.40436659	     14.27002247	      0.00000000	      0.24905888	      9.05569137	      7.76164959	      0.21219418	     35.73657374	     -1.40065835	     -6.71715926	     46.42839281	      0.00000000	      0.81032832	      1.69603550	    -12.11280760	      0.21219418	      0.00000000	      0.00000000	      0.00000000	      0.00000000	     -7.51010205	      0.00000000	     74.69197092	     90.00000001	      0.00000000	      0.00000000	      0.00000000	     -7.51010205	      0.00000000	     74.69197092	     90.00000001	      0.00000000	      0.00000000
